<?xml version="1.0" encoding="UTF-8" standalone="no"?>

<svg
        xmlns="http://www.w3.org/2000/svg"
        viewBox="0 0 110 44"
>
  <g
          transform="translate(0,-253)">
    <g
            transform="translate(-46.085384,207.44784)"
            style="display:inline;opacity:1"
            >
      <g
              transform="translate(-9.8775257,-6.7893947)"
              >
        <path
                style="fill:none;stroke:#000000;stroke-width:1.66499996;stroke-linecap:round;stroke-linejoin:round;stroke-miterlimit:4;stroke-dasharray:none;stroke-opacity:1"
                d="m 123.59821,75.127974 19.37128,-7.606771 19.93825,7.559524"
                />
        <path
                style="opacity:1;fill:#000000;fill-opacity:1;stroke:#000000;stroke-width:0.26499999;stroke-linecap:butt;stroke-linejoin:miter;stroke-miterlimit:4;stroke-dasharray:none;stroke-opacity:1"
                d="m 128.98437,73.946799 v 17.717633 h 28.25372 V 73.805057 73.049105 l -14.2686,-5.527902 z"
                />
      </g>
      <g
              transform="translate(14.842089,-4.1906916)"
              >
        <circle
                style="opacity:1;fill:#fbfbfb;fill-opacity:1;stroke:#000000;stroke-width:0;stroke-linecap:round;stroke-linejoin:round;stroke-miterlimit:4;stroke-dasharray:none;stroke-opacity:1;paint-order:fill markers stroke"
                cx="118.41914"
                cy="73.747528"
                r="3.3309152" />
        <rect
                style="opacity:1;fill:#ffffff;fill-opacity:1;stroke:#ffffff;stroke-width:3.16499996;stroke-linecap:round;stroke-linejoin:round;stroke-miterlimit:4;stroke-dasharray:none;stroke-opacity:1;paint-order:fill markers stroke"
                width="0.1889881"
                height="6.1421127"
                x="118.3242"
                y="75.90937" />
      </g>
      <path
              d="m 120.05468,61.427386 c 0,-5.494017 3.74145,-10.556031 13.11161,-10.556031 10.06872,0 13.54516,5.279749 13.54516,10.556031"
              style="fill:none;stroke:#000000;stroke-width:1.66499996;stroke-linecap:round;stroke-linejoin:round;stroke-miterlimit:4;stroke-dasharray:none;stroke-opacity:1" />
    </g>
    <g
            aria-label="KAM TECH"
            transform="matrix(0.26458333,0,0,0.26458333,-22.802051,204.66971)"
            style="font-style:normal;font-variant:normal;font-weight:normal;font-stretch:normal;font-size:40px;line-height:0.75;font-family:Calibri;-inkscape-font-specification:Calibri;letter-spacing:0px;word-spacing:0px;display:inline;opacity:1;fill:#ffad04;fill-opacity:1;stroke:none"
            >
      <path
              d="m 179.29688,266.75661 h -18.59375 l -19.04948,-28.39193 q -0.54688,-0.82031 -1.73177,-3.60026 h -0.22787 v 31.99219 h -14.72005 v -65.35156 h 14.72005 v 30.89844 h 0.22787 q 0.54687,-1.27605 1.82291,-3.64584 l 18.04688,-27.2526 h 17.54557 l -22.78646,31.17187 z"
              style="font-style:normal;font-variant:normal;font-weight:bold;font-stretch:normal;font-size:93.33333588px;line-height:0.75;font-family:'Segoe UI';-inkscape-font-specification:'Segoe UI';fill:#ffad04;fill-opacity:1;stroke:#ffad04;stroke-opacity:0"
              />
      <path
              d="m 242.96224,266.75661 h -16.04166 l -4.64844,-14.53776 h -23.24219 l -4.60286,14.53776 h -15.95052 l 23.78906,-65.35156 h 17.45443 z m -24.0625,-25.83984 -7.01823,-21.96615 q -0.77474,-2.46094 -1.09375,-5.8789 h -0.36458 q -0.22786,2.87109 -1.13932,5.69661 l -7.10938,22.14844 z"
              style="font-style:normal;font-variant:normal;font-weight:bold;font-stretch:normal;font-size:93.33333588px;line-height:0.75;font-family:'Segoe UI';-inkscape-font-specification:'Segoe UI';fill:#ffad04;fill-opacity:1;stroke:#ffad04;stroke-opacity:0"
              />
      <path
              d="m 325.58594,266.75661 h -14.53776 v -39.10156 q 0,-6.33464 0.54688,-13.99089 h -0.36459 q -1.13932,6.01563 -2.05078,8.65886 l -15.3125,44.43359 H 281.83594 L 266.25,222.77875 q -0.63802,-1.77735 -2.05078,-9.11459 h -0.41015 q 0.59244,9.66146 0.59244,16.95313 v 36.13932 h -13.26172 v -65.35156 h 21.55599 l 13.35287,38.73698 q 1.59505,4.64844 2.32422,9.34245 h 0.27344 q 1.23046,-5.42318 2.59765,-9.4336 l 13.35287,-38.64583 h 21.00911 z"
              style="font-style:normal;font-variant:normal;font-weight:bold;font-stretch:normal;font-size:93.33333588px;line-height:0.75;font-family:'Segoe UI';-inkscape-font-specification:'Segoe UI';fill:#ffad04;fill-opacity:1;stroke:#ffad04;stroke-opacity:0"
              />
      <path
              d="M 166.29167,282.75891 H 149.25 v 48.79167 h -13.5 v -48.79167 h -16.95833 v -10.95833 h 47.5 z"
              style="font-style:normal;font-variant:normal;font-weight:bold;font-stretch:normal;font-size:85.33333588px;line-height:0.75;font-family:'Segoe UI';-inkscape-font-specification:'Segoe UI';fill:#000000;fill-opacity:1"
              />
      <path
              d="m 210.16667,331.55058 h -35.83334 v -59.75 h 34.45834 v 10.95833 h -21 v 13.29167 h 19.54166 v 10.91666 h -19.54166 v 13.66667 h 22.375 z"
              style="font-style:normal;font-variant:normal;font-weight:bold;font-stretch:normal;font-size:85.33333588px;line-height:0.75;font-family:'Segoe UI';-inkscape-font-specification:'Segoe UI';fill:#000000;fill-opacity:1"
              />
      <path
              d="m 262.66667,329.42558 q -6.54167,3.16666 -17.08334,3.16666 -13.75,0 -21.625,-8.08333 -7.875,-8.08333 -7.875,-21.54167 0,-14.33333 8.83334,-23.25 8.875,-8.91666 23,-8.91666 8.75,0 14.75,2.20833 v 12.95833 q -6,-3.58333 -13.66667,-3.58333 -8.41667,0 -13.58333,5.29167 -5.16667,5.29166 -5.16667,14.33333 0,8.66667 4.875,13.83333 4.875,5.125 13.125,5.125 7.875,0 14.41667,-3.83333 z"
              style="font-style:normal;font-variant:normal;font-weight:bold;font-stretch:normal;font-size:85.33333588px;line-height:0.75;font-family:'Segoe UI';-inkscape-font-specification:'Segoe UI';fill:#000000;fill-opacity:1"
              />
      <path
              d="m 324.87501,331.55058 h -13.5 v -24.33334 h -24.75 v 24.33334 h -13.45833 v -59.75 h 13.45833 v 23.83333 h 24.75 v -23.83333 h 13.5 z"
              style="font-style:normal;font-variant:normal;font-weight:bold;font-stretch:normal;font-size:85.33333588px;line-height:0.75;font-family:'Segoe UI';-inkscape-font-specification:'Segoe UI';fill:#000000;fill-opacity:1"
              />
    </g>
  </g>
</svg>
